# xmcd
# 
# Track frame offsets:
#     150
#     32426
#     65508
#     100151
#     132365
#     166902
#     196149
#     226380
#     254697
#     270977
# 
# Disc length: 4059
# 
# Revision: 1
# Processed by: cddbd v1.5.2PL0 Copyright (c) Steve Scherf et al.
# Submitted via: BonkEnc v1.0.8
# 
DISCID=810fd90a
DTITLE=Fernado Huergo - Jazz Argentino
DYEAR=2000
DGENRE=Contemporary Jazz
TTITLE0=Espejos
TTITLE1=Lo que no fue
TTITLE2=Truco
TTITLE3=Adán Buensayres
TTITLE4=La rosa de cobre
TTITLE5=Che
TTITLE6=Exilio
TTITLE7=Serrana
TTITLE8=Chicos de Malvinas
TTITLE9=Volveré siempre a San Juan
EXTD=YEAR: 2002
EXTT0=
EXTT1=
EXTT2=
EXTT3=
EXTT4=
EXTT5=
EXTT6=
EXTT7=
EXTT8=
EXTT9=
PLAYORDER=
